<svg width="160" height="36" viewBox="0 0 160 36" fill="none" xmlns="http://www.w3.org/2000/svg">
<path d="M38.6051 9.63556H39.4702V12.2566H39.0377C37.9676 12.2566 37.5123 12.7125 37.5123 13.7837V15.1741H39.0831V17.7266H37.5123V27.2309H34.6894V17.7266H33.2551V15.1741H34.6894V13.4874C34.6894 11.0942 36.101 9.63556 38.6051 9.63556ZM41.1776 9.63556H44.0006V13.1683H41.1776V9.63556ZM41.2004 15.174H44.0233V27.2309H41.2004V15.174Z" fill="white"/>
<path d="M75.8327 20.8948C75.8327 17.2253 78.6102 14.5815 82.1388 14.5815C85.6674 14.5815 88.4448 17.2253 88.4448 20.8948C88.4448 24.5643 85.6675 27.2309 82.1388 27.2309C78.6102 27.2309 75.8327 24.5642 75.8327 20.8948ZM82.1389 24.5642C84.1195 24.5642 85.6221 23.06 85.6221 20.8948C85.6221 18.7296 84.1194 17.2253 82.1389 17.2253C80.1583 17.2253 78.6557 18.7295 78.6557 20.8948C78.6557 23.0601 80.1583 24.5642 82.1389 24.5642Z" fill="white"/>
<path d="M88.8781 15.1741H91.9515L94.8882 23.4931L97.8022 15.1741H100.716L96.2315 27.2309H93.4312L88.8781 15.1741Z" fill="white"/>
<path d="M101.172 20.986C101.172 17.2708 103.881 14.7182 107.159 14.7182C108.73 14.7182 110.187 15.3108 111.052 16.4048L111.075 14.9461H113.579V27.003H111.075L111.052 25.5443C110.187 26.6384 108.73 27.2309 107.159 27.2309C103.881 27.2309 101.172 24.6554 101.172 20.986ZM107.524 24.6327C109.436 24.6327 110.961 23.2879 110.961 20.986C110.961 18.6612 109.436 17.3164 107.524 17.3164C105.498 17.3164 103.995 18.7979 103.995 20.986C103.995 23.1511 105.498 24.6327 107.524 24.6327Z" fill="white"/>
<path d="M117.177 17.7266H115.72V15.1741H117.177V11.9603L120 11.0031V15.1741H121.48V17.7266H120L119.977 27.2309H117.154L117.177 17.7266Z" fill="white"/>
<path d="M122.777 20.9631C122.777 17.2708 125.418 14.6498 128.902 14.6498C132.089 14.6498 134.957 16.8151 134.684 21.5557H125.418C125.646 23.4703 127.08 24.7922 129.129 24.7922C130.632 24.7922 131.907 24.0856 132.794 22.7865L134.661 24.268C133.477 25.9774 131.611 27.2309 129.061 27.2309C125.305 27.2309 122.777 24.587 122.777 20.9631ZM132.02 19.5273C131.679 17.8407 130.472 16.9745 128.879 16.9745C128.111 16.9561 127.36 17.1986 126.748 17.6622C126.136 18.1259 125.699 18.7834 125.509 19.5273H132.02Z" fill="white"/>
<path d="M136.802 24.1768H139.625V27.2306H136.802V24.1768Z" fill="white"/>
<path d="M142.379 9.63556H145.202V13.1683H142.379V9.63556ZM142.379 15.174H145.202V27.2309H142.379V15.174Z" fill="white"/>
<path d="M147.388 20.8948C147.388 17.2253 150.165 14.5815 153.694 14.5815C157.223 14.5815 160 17.2253 160 20.8948C160 24.5643 157.223 27.2309 153.694 27.2309C150.165 27.2309 147.388 24.5642 147.388 20.8948ZM153.694 24.5642C155.675 24.5642 157.177 23.06 157.177 20.8948C157.177 18.7296 155.675 17.2253 153.694 17.2253C151.713 17.2253 150.211 18.7295 150.211 20.8948C150.211 23.0601 151.713 24.5642 153.694 24.5642Z" fill="white"/>
<path d="M73.7201 20.6643C73.5522 18.7974 72.6407 16.8376 71.2917 15.8313C70.1704 15.0192 68.8214 14.582 67.4369 14.582C66.0525 14.582 64.7034 15.0192 63.5821 15.8313C62.0835 16.951 61.1309 18.747 61.1309 20.8953V27.2309H63.9543V20.8953C63.9543 18.7288 65.4569 17.2264 67.4369 17.2264C69.4189 17.2264 70.9216 18.7288 70.9216 20.8953V27.2309H73.7146C73.7146 27.2309 73.7383 20.8728 73.7201 20.6643Z" fill="white"/>
<path d="M59.2631 20.6643C59.0952 18.7974 58.1837 16.8376 56.8347 15.8313C55.7135 15.0192 54.3644 14.582 52.98 14.582C51.5955 14.582 50.2464 15.0192 49.1252 15.8313C47.6265 16.951 46.674 18.747 46.674 20.8953V27.2309H49.4973V20.8953C49.4973 18.7288 51 17.2264 52.98 17.2264C54.962 17.2264 56.4646 18.7288 56.4646 20.8953V27.2309H59.2576C59.2576 27.2309 59.2813 20.8728 59.2631 20.6643Z" fill="white"/>
<path d="M20.0889 10.4843C22.0418 9.65657 23.5858 8.08696 24.3814 6.12078C25.177 4.15459 25.159 1.95289 24.3313 0L4.8787 8.24313C3.43192 8.85628 2.19772 9.8819 1.3301 11.192C0.462492 12.5021 -0.000116747 14.0387 2.21001e-08 15.6101L2.21001e-08 19.0101L20.0889 10.4843Z" fill="white"/>
<path d="M0 22.5878V35.1906C2.00142 35.1905 3.93006 34.44 5.40515 33.0873C6.88025 31.7346 7.79459 29.878 7.96767 27.8841L20.0889 22.7477C22.0418 21.92 23.5858 20.3504 24.3814 18.3842C25.177 16.418 25.159 14.2163 24.3313 12.2634L0 22.5878Z" fill="white"/>
</svg>
