<svg width="717" height="158" viewBox="0 0 717 158" fill="none" xmlns="http://www.w3.org/2000/svg">
<path d="M172.999 43.1794H176.876V54.925H174.938C170.142 54.925 168.102 56.9678 168.102 61.7683V67.9988H175.141V79.4374H168.102V122.028H155.452V79.4374H149.025V67.9988H155.452V60.4405C155.452 49.716 161.778 43.1794 172.999 43.1794ZM184.527 43.1794H197.178V59.0103H184.527V43.1794ZM184.629 67.9984H197.28V122.028H184.629V67.9984Z" fill="#27AAE1"/>
<path d="M339.826 93.6348C339.826 77.1907 352.272 65.3432 368.085 65.3432C383.897 65.3432 396.343 77.1907 396.343 93.6348C396.343 110.079 383.898 122.028 368.085 122.028C352.272 122.028 339.826 110.078 339.826 93.6348ZM368.085 110.078C376.961 110.078 383.694 103.337 383.694 93.6348C383.694 83.9322 376.96 77.1907 368.085 77.1907C359.21 77.1907 352.476 83.9317 352.476 93.6348C352.476 103.338 359.209 110.078 368.085 110.078Z" fill="#27AAE1"/>
<path d="M398.285 67.9988H412.058L425.218 105.278L438.276 67.9988H451.334L431.237 122.028H418.689L398.285 67.9988Z" fill="#27AAE1"/>
<path d="M453.377 94.0433C453.377 77.395 465.518 65.9559 480.208 65.9559C487.247 65.9559 493.776 68.6115 497.654 73.5139L497.755 66.9771H508.977V121.007H497.755L497.654 114.47C493.776 119.373 487.247 122.028 480.208 122.028C465.518 122.028 453.377 110.487 453.377 94.0433ZM481.84 110.385C490.41 110.385 497.246 104.359 497.246 94.0433C497.246 83.6255 490.41 77.5992 481.84 77.5992C472.761 77.5992 466.028 84.2381 466.028 94.0433C466.028 103.746 472.761 110.385 481.84 110.385Z" fill="#27AAE1"/>
<path d="M525.1 79.4374H518.571V67.9988H525.1V53.5971L537.75 49.3076V67.9988H544.382V79.4374H537.75L537.648 122.028H524.998L525.1 79.4374Z" fill="#27AAE1"/>
<path d="M550.197 93.941C550.197 77.395 562.03 65.6494 577.64 65.6494C591.922 65.6494 604.777 75.3525 603.552 96.5966H562.031C563.052 105.176 569.479 111.1 578.66 111.1C585.393 111.1 591.106 107.934 595.085 102.112L603.45 108.751C598.145 116.411 589.78 122.029 578.354 122.029C561.521 122.028 550.197 110.181 550.197 93.941ZM591.616 87.5066C590.086 79.9487 584.679 76.0671 577.537 76.0671C574.098 75.9847 570.732 77.0711 567.989 79.1488C565.247 81.2266 563.29 84.173 562.439 87.5066H591.616Z" fill="#27AAE1"/>
<path d="M613.043 108.342H625.693V122.027H613.043V108.342Z" fill="#27AAE1"/>
<path d="M638.038 43.1794H650.688V59.0103H638.038V43.1794ZM638.038 67.9984H650.688V122.028H638.038V67.9984Z" fill="#27AAE1"/>
<path d="M660.482 93.6348C660.482 77.1907 672.929 65.3432 688.742 65.3432C704.554 65.3432 717 77.1907 717 93.6348C717 110.079 704.554 122.028 688.742 122.028C672.929 122.028 660.482 110.078 660.482 93.6348ZM688.742 110.078C697.617 110.078 704.351 103.337 704.351 93.6348C704.351 83.9322 697.617 77.1907 688.742 77.1907C679.866 77.1907 673.133 83.9317 673.133 93.6348C673.133 103.338 679.866 110.078 688.742 110.078Z" fill="#27AAE1"/>
<path d="M330.358 92.6018C329.606 84.2359 325.521 75.4535 319.476 70.9439C314.451 67.3049 308.406 65.3456 302.202 65.3456C295.998 65.3456 289.952 67.3049 284.927 70.9439C278.212 75.9617 273.943 84.01 273.943 93.637V122.028H286.595V93.637C286.595 83.9283 293.329 77.1958 302.202 77.1958C311.084 77.1958 317.817 83.9283 317.817 93.637V122.028H330.334C330.334 122.028 330.44 93.5363 330.358 92.6018Z" fill="#27AAE1"/>
<path d="M265.573 92.6018C264.821 84.2359 260.736 75.4535 254.691 70.9439C249.666 67.3049 243.62 65.3456 237.416 65.3456C231.212 65.3456 225.167 67.3049 220.142 70.9439C213.426 75.9617 209.158 84.01 209.158 93.637V122.028H221.81V93.637C221.81 83.9283 228.544 77.1958 237.416 77.1958C246.298 77.1958 253.032 83.9283 253.032 93.637V122.028H265.548C265.548 122.028 265.654 93.5363 265.573 92.6018Z" fill="#27AAE1"/>
<path d="M90.0233 46.9828C98.7746 43.2735 105.694 36.2397 109.259 27.4287C112.825 18.6178 112.744 8.75138 109.035 0L21.8627 36.9395C15.3793 39.6872 9.84852 44.2833 5.96053 50.1542C2.07254 56.0252 -0.000523172 62.911 9.9036e-08 69.9527L9.9036e-08 85.1889L90.0233 46.9828Z" fill="#27AAE1"/>
<path d="M0 101.221V157.698C8.96886 157.697 17.6116 154.334 24.2218 148.273C30.8321 142.211 34.9295 133.891 35.7051 124.956L90.0233 101.938C98.7746 98.2289 105.694 91.1951 109.259 82.3841C112.825 73.5732 112.744 63.7068 109.035 54.9554L0 101.221Z" fill="#27AAE1"/>
</svg>
